<svg id="Capa_1" enable-background="new 0 0 512 512" height="512" viewBox="0 0 512 512" width="512" xmlns="http://www.w3.org/2000/svg"><g><g><path clip-rule="evenodd" d="m357.833 227.229c-18.652-16.139-41.13-27.902-65.876-33.755-11.565-2.756-23.612-4.205-35.999-4.205s-24.434 1.449-35.999 4.177c-24.746 5.882-47.224 17.645-65.848 33.755-26.277 22.731-44.9 54.07-51.505 89.644-1.729 9.348-2.636 18.952-2.636 28.783 0 8.694.709 17.19 2.069 25.487 12.132 74.244 76.421 130.871 153.918 130.871s141.786-56.628 153.918-130.871c1.361-8.297 2.069-16.792 2.069-25.487 0-9.831-.907-19.435-2.636-28.783-6.604-35.574-25.227-66.914-51.475-89.616zm-89.233 3.637c4.961 0 9.042 4.063 9.042 9.064v9.433c11.112 2.529 21.543 6.933 30.869 12.843l6.69-6.677c3.515-3.523 9.269-3.523 12.784 0l17.886 17.9c3.487 3.523 3.487 9.291 0 12.814l-6.69 6.706c5.924 9.376 10.29 19.804 12.812 30.97h9.439c4.961 0 9.014 4.063 9.014 9.035v25.346c0 5.001-4.053 9.064-9.014 9.064h-9.439c-2.523 11.166-6.888 21.594-12.812 30.97l6.69 6.677c3.487 3.523 3.487 9.291 0 12.814l-17.886 17.929c-3.515 3.523-9.269 3.523-12.784 0l-6.69-6.706c-9.326 5.938-19.757 10.342-30.869 12.843v9.462c0 4.972-4.082 9.064-9.042 9.064h-25.285c-4.961 0-9.042-4.091-9.042-9.064v-9.462c-11.112-2.5-21.543-6.904-30.897-12.843l-6.661 6.706c-3.515 3.523-9.269 3.523-12.784 0l-17.886-17.929c-3.515-3.523-3.515-9.291 0-12.814l6.69-6.677c-5.924-9.376-10.318-19.804-12.812-30.97h-9.439c-4.961 0-9.014-4.063-9.014-9.064v-25.345c0-4.972 4.053-9.035 9.014-9.035h9.439c2.494-11.166 6.888-21.594 12.812-30.97l-6.69-6.706c-3.515-3.523-3.515-9.291 0-12.814l17.886-17.9c3.515-3.523 9.269-3.523 12.784 0l6.661 6.677c9.354-5.91 19.785-10.314 30.897-12.843v-9.433c0-5.001 4.082-9.064 9.042-9.064h25.285z" fill="#ffe6b4" fill-rule="evenodd"/></g><g><path clip-rule="evenodd" d="m451.969 42.814.51 274.915c0 4.859-4.138 8.809-9.184 8.809-11.225-4.461-22.563-7.644-33.987-9.69 1.729 9.349 2.636 18.953 2.636 28.784 0 8.695-.709 17.191-2.069 25.488h75.542c8.731 0 15.959-6.876 16.526-15.486v-103.288l-.057-192.937c0-9.121-7.455-16.594-16.582-16.594h-33.335z" fill="#bfdbff" fill-rule="evenodd"/></g><g><path clip-rule="evenodd" d="m26.554 42.827c-9.099 0-16.554 7.473-16.554 16.593l.113 295.1c0 9.121 7.455 16.593 16.554 16.593h75.372c-1.361-8.297-2.069-16.792-2.069-25.487 0-9.831.907-19.435 2.636-28.783-11.423 2.046-22.79 5.228-34.015 9.689-5.046 0-9.212-3.949-9.184-8.808l.51-274.898h-33.363z" fill="#bfdbff" fill-rule="evenodd"/></g><g><path clip-rule="evenodd" d="m179.735 77.775c-13.578 0-24.548 11.024-24.548 24.606s10.97 24.606 24.548 24.606c13.549 0 24.519-11.024 24.519-24.606.001-13.581-10.969-24.606-24.519-24.606z" fill="#ffe6b4" fill-rule="evenodd"/></g><g><path clip-rule="evenodd" d="m332.208 77.775c-13.549 0-24.519 11.024-24.519 24.606s10.97 24.606 24.519 24.606 24.548-11.024 24.548-24.606c0-13.581-10.999-24.606-24.548-24.606z" fill="#ffe6b4" fill-rule="evenodd"/></g><g><path clip-rule="evenodd" d="m255.957 292.466c-29.31 0-53.064 23.81-53.064 53.161 0 29.379 23.754 53.19 53.064 53.19s53.064-23.81 53.064-53.19c0-29.351-23.754-53.161-53.064-53.161z" fill="#ecf2f3" fill-rule="evenodd"/></g><g><path clip-rule="evenodd" d="m315.2 255.529-6.69 6.677c-9.326-5.91-19.757-10.314-30.869-12.843v-9.433c0-5.001-4.082-9.064-9.042-9.064h-25.285c-4.961 0-9.042 4.063-9.042 9.064v9.433c-11.112 2.529-21.543 6.933-30.897 12.843l-6.661-6.677c-3.515-3.523-9.269-3.523-12.784 0l-17.886 17.9c-3.515 3.523-3.515 9.291 0 12.814l6.69 6.706c-5.924 9.376-10.318 19.804-12.812 30.97h-9.439c-4.961 0-9.014 4.063-9.014 9.035v25.346c0 5.001 4.053 9.064 9.014 9.064h9.439c2.494 11.166 6.888 21.594 12.812 30.97l-6.69 6.677c-3.515 3.523-3.515 9.291 0 12.814l17.886 17.929c3.515 3.523 9.269 3.523 12.784 0l6.661-6.706c9.354 5.938 19.785 10.342 30.897 12.843v9.462c0 4.972 4.082 9.064 9.042 9.064h25.286c4.961 0 9.042-4.091 9.042-9.064v-9.462c11.112-2.5 21.543-6.904 30.869-12.843l6.69 6.706c3.515 3.523 9.269 3.523 12.784 0l17.886-17.929c3.487-3.523 3.487-9.291 0-12.814l-6.69-6.677c5.924-9.376 10.29-19.804 12.812-30.97h9.439c4.961 0 9.014-4.063 9.014-9.064v-25.345c0-4.972-4.053-9.035-9.014-9.035h-9.439c-2.523-11.166-6.888-21.594-12.812-30.97l6.69-6.706c3.487-3.523 3.487-9.291 0-12.814l-17.886-17.9c-3.515-3.524-9.27-3.524-12.785-.001zm-59.243 36.937c29.31 0 53.064 23.81 53.064 53.161 0 29.379-23.754 53.19-53.064 53.19s-53.064-23.81-53.064-53.19c.001-29.351 23.755-53.161 53.064-53.161z" fill="#bfdbff" fill-rule="evenodd"/></g><g><path clip-rule="evenodd" d="m332.208 127.987c-13.549 0-24.519-11.024-24.519-24.606s10.97-24.606 24.519-24.606 24.548 11.024 24.548 24.606-10.999 24.606-24.548 24.606zm108.99-104.419c-61.057-24.492-108.281-10.399-167.949 18.64-14.598 7.103-16.979 9.206-17.319 16.849.113 2.188.028 131.212.028 131.212 12.387 0 24.434 1.449 35.999 4.205 24.746 5.853 47.224 17.616 65.876 33.755 26.248 22.702 44.872 54.042 51.476 89.615 11.423 2.046 22.762 5.228 33.987 9.689 5.046 0 9.184-3.949 9.184-8.808l-.51-274.898-.028-5.569c-.001-12.587-.568-10.598-10.744-14.69z" fill="#ecf2f3" fill-rule="evenodd"/></g><g><path clip-rule="evenodd" d="m179.735 126.987c-13.578 0-24.548-11.024-24.548-24.606s10.97-24.606 24.548-24.606c13.549 0 24.519 11.024 24.519 24.606.001 13.582-10.969 24.606-24.519 24.606zm58.875-85.779c-59.668-29.039-106.864-43.132-167.921-18.64-2.832 1.135-7.462 1.848-9.401 4.401-2.044 2.69-1.369 7.474-1.37 10.597-.001 1.754 0 3.507 0 5.261l-.51 274.898c-.028 4.859 4.139 8.808 9.184 8.808 11.225-4.461 22.592-7.643 34.015-9.689 6.605-35.573 25.228-66.913 51.505-89.644 18.623-16.11 41.102-27.873 65.848-33.755 11.565-2.728 23.612-4.177 35.999-4.177 0 0 .085-129.025-.028-131.212-.314-7.643-2.695-9.745-17.321-16.848z" fill="#ecf2f3" fill-rule="evenodd"/></g><g><path d="m255.958 281.481c-34.773 0-63.063 28.334-63.063 63.161 0 34.843 28.29 63.189 63.063 63.189s63.063-28.346 63.063-63.189c0-34.826-28.29-63.161-63.063-63.161zm0 106.352c-23.745 0-43.063-19.375-43.063-43.19 0-23.8 19.318-43.163 43.063-43.163s43.063 19.362 43.063 43.163c0 23.815-19.318 43.19-43.063 43.19z"/><path d="m361.433 312.936h-1.749c-2.042-6.709-4.717-13.177-8-19.346l1.295-1.298c7.334-7.412 7.334-19.47-.034-26.914l-17.88-17.896c-3.589-3.597-8.374-5.58-13.471-5.58-5.098 0-9.882 1.981-13.458 5.565l-1.245 1.242c-6.147-3.285-12.583-5.962-19.249-8.006v-1.758c0-10.511-8.542-19.063-19.042-19.063h-25.284c-10.5 0-19.042 8.552-19.042 19.063v1.759c-6.66 2.043-13.099 4.718-19.257 8.003l-1.222-1.226c-3.59-3.598-8.374-5.58-13.472-5.58s-9.882 1.981-13.466 5.574l-17.892 17.907c-7.41 7.426-7.41 19.512 0 26.938l1.265 1.268c-3.301 6.191-5.979 12.659-8.01 19.347h-1.737c-10.484 0-19.014 8.54-19.014 19.035v25.344c0 10.511 8.53 19.063 19.014 19.063h1.737c2.03 6.682 4.705 13.146 8.002 19.332l-1.256 1.254c-7.41 7.427-7.41 19.512 0 26.939l17.886 17.929c3.59 3.598 8.374 5.58 13.472 5.58s9.882-1.981 13.486-5.594l1.212-1.221c6.157 3.293 12.592 5.966 19.251 8.001v1.771c0 10.511 8.542 19.063 19.042 19.063h25.285c10.5 0 19.042-8.552 19.042-19.063v-1.771c6.665-2.035 13.098-4.711 19.243-8.003l1.235 1.238c3.59 3.598 8.375 5.58 13.473 5.58s9.882-1.982 13.471-5.58l17.915-17.957c7.335-7.412 7.335-19.471-.043-26.926l-1.243-1.24c3.279-6.164 5.952-12.626 7.992-19.33h1.749c10.484 0 19.014-8.552 19.014-19.063v-25.344c-.001-10.497-8.531-19.036-19.015-19.036zm-.986 43.443h-8.453c-4.674 0-8.724 3.237-9.754 7.795-2.244 9.93-6.117 19.295-11.513 27.834-2.499 3.955-1.921 9.113 1.39 12.418l6.02 6.007-16.544 16.583-6.002-6.016c-3.314-3.323-8.494-3.893-12.452-1.372-8.525 5.429-17.842 9.305-27.691 11.522-4.563 1.026-7.805 5.079-7.805 9.755v8.526h-23.369v-8.526c0-4.676-3.242-8.729-7.805-9.755-9.839-2.214-19.169-6.092-27.731-11.53-3.963-2.515-9.145-1.936-12.455 1.394l-5.96 6.001-16.542-16.582 6.02-6.007c3.311-3.305 3.889-8.463 1.39-12.418-5.435-8.602-9.306-17.958-11.507-27.811-1.021-4.569-5.077-7.819-9.759-7.819h-8.453v-23.445h8.453c4.683 0 8.738-3.25 9.759-7.819 2.201-9.853 6.073-19.209 11.507-27.811 2.494-3.948 1.924-9.096-1.374-12.403l-6.036-6.049 16.543-16.559 5.975 5.989c3.305 3.312 8.465 3.891 12.421 1.392 8.577-5.42 17.922-9.304 27.775-11.546 4.552-1.036 7.781-5.083 7.781-9.75v-8.498h23.369v8.498c0 4.668 3.229 8.714 7.781 9.75 9.864 2.245 19.195 6.128 27.735 11.538 3.952 2.504 9.107 1.936 12.418-1.369l6.016-6.005 16.545 16.559-6.036 6.05c-3.298 3.306-3.868 8.455-1.374 12.403 5.396 8.541 9.269 17.904 11.513 27.834 1.03 4.558 5.08 7.795 9.754 7.795h8.453v23.447z"/><path d="m511.887 59.436c0-14.663-11.925-26.593-26.583-26.593h-23.413c-.128-4.083-.582-7.154-2.162-10.074-2.709-5.005-7.208-6.645-11.179-8.092-1.06-.386-2.262-.824-3.629-1.374-62.881-25.224-112.168-12.16-176.044 18.927-5.25 2.552-9.534 4.721-12.941 7.088-3.409-2.368-7.696-4.535-12.95-7.085-63.873-31.086-113.151-44.15-176.02-18.93-4.654 1.865-9.868 3.088-13.227 7.104-1.736 2.075-2.787 4.607-3.277 7.252-.261 1.409-.381 2.841-.45 4.271-.029.611-.278.913-.278.913s-5.281 0-6.706 0c-3.418 0-6.836 0-10.254 0-2.074 0-4.147 0-6.221 0-14.641 0-26.553 11.93-26.553 26.597l.113 295.096c0 14.663 11.912 26.593 26.554 26.593h67.116c16.268 74.737 82.798 130.871 162.175 130.871s145.906-56.134 162.173-130.871h67.287c14.658 0 26.583-11.93 26.583-26.597zm-442.474 256.096.249-80.188c.017-5.523-4.446-10.013-9.969-10.031-.011 0-.021 0-.031 0-5.508 0-9.982 4.457-10 9.968l-.255 82.4c-.033 5.686 2.644 11.128 7.092 14.654 4.103 3.252 10.673 5.55 15.786 3.505 6.002-2.386 12.173-4.414 18.446-6.089-.497 5.232-.761 10.53-.761 15.89 0 5.223.253 10.386.725 15.487h-64.028c-3.553 0-6.554-3.02-6.554-6.598l-.113-295.094c0-3.574 3.001-6.594 6.554-6.594h23.326l-.218 92.435c-.013 5.522 4.454 10.01 9.977 10.023h.024c5.512 0 9.986-4.462 10-9.976 0 0 .26-110.447.301-111.78.074-.026 2.786-1.014 4.448-1.68 56.272-22.574 99.584-10.966 159.832 18.354 2.302 1.117 10.865 5.862 11.178 6.161.517.494.468 1.096.505 1.804-.062 1.676.031 121.413.031 121.413-8.138.49-16.123 1.56-23.908 3.187l-32.314-22.127v-25.135c14.173-4.308 24.519-17.528 24.519-33.125 0-19.082-15.485-34.605-34.519-34.605-19.049 0-34.547 15.523-34.547 34.605 0 15.601 10.358 28.823 24.547 33.128v30.259c-.048 3.377 1.657 6.611 4.47 8.478l23.04 15.776c-15.604 5.934-30.082 14.173-43.041 24.28l-35.59-23.538v-41.7c0-6.522-4.477-10.999-10-10.999s-10 4.477-10 9.999v48.075c0 3.307 1.613 6.231 4.087 8.051.046.038.105.079.159.119.069.049.135.101.205.148.012.008.019.015.031.023l35.594 23.541c-21.677 21.709-37.417 49.372-44.515 80.311-8.416 1.827-16.708 4.227-24.763 7.185zm110.322-198.529c-8.021 0-14.547-6.552-14.547-14.607s6.526-14.607 14.547-14.607c8.006 0 14.519 6.552 14.519 14.607s-6.513 14.607-14.519 14.607zm76.223 374.998c-80.498 0-145.988-65.656-145.988-146.359 0-69.097 48.01-127.157 112.342-142.429.02-.005.04-.01.06-.015 10.787-2.556 22.03-3.915 33.585-3.915 71.406 0 130.995 51.666 143.546 119.666.01.046.016.094.027.14 1.581 8.614 2.414 17.488 2.414 26.553.001 80.703-65.489 146.359-145.986 146.359zm161.78-183.648c-7.096-30.935-22.826-58.601-44.497-80.311l35.603-23.548c2.689-1.778 4.229-4.634 4.447-7.618.017-.161.027-.34.031-.537.001-.047.004-.094.004-.142 0-.016.001-.028.001-.044v-48.075c0-5.522-4.477-9.999-10-9.999s-10 4.477-10 9.999v42.7l-35.591 23.54c-13.218-10.314-28.03-18.666-43.994-24.627l24.115-16.512c2.631-1.801 4.122-4.637 4.32-7.589.018-.199.03-.414.03-.661v-.054c0-.01 0-.021 0-.031v-30.326c14.188-4.306 24.547-17.522 24.547-33.122 0-19.082-15.498-34.605-34.547-34.605-19.034 0-34.519 15.523-34.519 34.605 0 15.596 10.347 28.81 24.519 33.119v25.141l-33.438 22.896c-7.437-1.501-15.055-2.491-22.812-2.957 0 0 .038-119.749-.022-121.41.035-.653-.015-1.284.456-1.755.298-.298 8.929-5.097 11.234-6.217 60.246-29.32 103.564-40.928 159.842-18.352 1.664.669 4.368 1.654 4.436 1.679.038 1.33.572 281.991.572 281.991-8.045-2.955-16.329-5.352-24.737-7.178zm-85.53-192.35c-8.006 0-14.519-6.552-14.519-14.607s6.513-14.607 14.519-14.607c8.021 0 14.547 6.552 14.547 14.607s-6.526 14.607-14.547 14.607zm153.209 245.127h-64.198c.472-5.101.725-10.265.725-15.487 0-5.357-.264-10.653-.761-15.882 6.263 1.674 12.424 3.699 18.417 6.081 1.175.467 2.429.707 3.694.707 10.578 0 19.184-8.437 19.184-18.827l-.509-264.88h23.333c3.568 0 6.583 3.02 6.583 6.598l.115 295.096c0 3.574-3.015 6.594-6.583 6.594z"/><path d="m59.662 179.308c-5.523 0-10 4.477-10 9.999v.057c0 5.522 4.477 10.971 10 10.971s10-5.506 10-11.028-4.477-9.999-10-9.999z"/></g></g></svg>